<svg xmlns="http://www.w3.org/2000/svg" viewBox="0 0 320 480" role="img" aria-labelledby="title desc">
  <title id="title">Book cover placeholder</title>
  <desc id="desc">Fallback image shown when a book cover is unavailable.</desc>
  <defs>
    <linearGradient id="bg" x1="0%" y1="0%" x2="100%" y2="100%">
      <stop offset="0%" stop-color="#f3efe6" />
      <stop offset="100%" stop-color="#d8cfc0" />
    </linearGradient>
  </defs>
  <rect width="320" height="480" fill="url(#bg)" rx="24" />
  <rect x="54" y="52" width="212" height="376" rx="14" fill="#fffaf2" stroke="#b9aa92" stroke-width="4" />
  <rect x="78" y="92" width="164" height="18" rx="9" fill="#7b6145" opacity="0.9" />
  <rect x="78" y="126" width="140" height="12" rx="6" fill="#b9aa92" />
  <rect x="78" y="156" width="116" height="12" rx="6" fill="#d2c6b5" />
  <path d="M102 258c0-32 26-58 58-58s58 26 58 58-26 58-58 58-58-26-58-58Zm58-30c-17 0-30 13-30 30s13 30 30 30 30-13 30-30-13-30-30-30Z" fill="#7b6145" opacity="0.9" />
  <rect x="94" y="344" width="132" height="12" rx="6" fill="#b9aa92" />
  <rect x="114" y="370" width="92" height="12" rx="6" fill="#d2c6b5" />
</svg>
